Coordinates
version=1
nRows=11
nColumns=63
inDegrees=yes

Units are S.I. units (second, meters, Newtons, ...)
If the header above contains a line with 'inDegrees', this indicates whether rotational values are in degrees (yes) or radians (no).

endheader
time	pelvis_tilt	pelvis_list	pelvis_rotation	pelvis_tx	pelvis_ty	pelvis_tz	hip_flexion_r	hip_adduction_r	hip_rotation_r	knee_angle_r	knee_angle_r_beta	ankle_angle_r	subtalar_angle_r	mtp_angle_r	hip_flexion_l	hip_adduction_l	hip_rotation_l	knee_angle_l	knee_angle_l_beta	ankle_angle_l	subtalar_angle_l	mtp_angle_l	L5_S1_Flex_Ext	L5_S1_Lat_Bending	L5_S1_axial_rotation	L4_L5_Flex_Ext	L4_L5_Lat_Bending	L4_L5_axial_rotation	L3_L4_Flex_Ext	L3_L4_Lat_Bending	L3_L4_axial_rotation	L2_L3_Flex_Ext	L2_L3_Lat_Bending	L2_L3_axial_rotation	L1_L2_Flex_Ext	L1_L2_Lat_Bending	L1_L2_axial_rotation	L1_T12_Flex_Ext	L1_T12_Lat_Bending	L1_T12_axial_rotation	Abs_r3	Abs_r2	Abs_r1	Abs_t1	Abs_t2	neck_flexion	neck_bending	neck_rotation	arm_flex_r	arm_add_r	arm_rot_r	elbow_flex_r	pro_sup_r	wrist_flex_r	wrist_dev_r	arm_flex_l	arm_add_l	arm_rot_l	elbow_flex_l	pro_sup_l	wrist_flex_l	wrist_dev_l
      7.40000000	     -1.10951525	     -9.17110856	     82.70688758	      0.20261434	      0.67172804	      0.61630410	      9.36149924	      1.88426098	      8.86371207	      0.81840165	      0.01428380	     15.24425692	    -14.35146080	      0.00000000	      7.57395735	     -1.00078721	    -17.82174009	      2.13306464	      0.03722900	     25.07539884	     13.58914650	      0.00000000	      0.01422610	      0.56118255	      0.59034629	      0.02641930	      0.74637279	      0.62724293	      0.02337207	      1.36445925	      0.62724293	      0.01625901	      1.36445925	      0.51655300	      0.01321036	      1.14436346	      0.47965636	      0.00812880	      0.86927177	      0.44275971	      0.10161564	      6.34820924	      3.28332894	      0.00000000	      0.00000000	     27.82306633	      0.28461971	     10.52940161	     10.82446950	    -16.31967946	     28.23609980	     34.88248211	     85.99718931	     -8.25744244	     -4.21362014	     13.15165748	     -7.82316846	     17.92787554	     29.38973818	     86.26565707	    -11.85554197	      1.77708703
      7.41666667	     -1.08165779	     -9.18717239	     82.84843851	      0.20243375	      0.67196296	      0.61595838	      9.36884073	      1.88780069	      8.75389167	      0.82535359	      0.01440514	     15.09087146	    -14.44340516	      0.00000000	      7.57696763	     -0.99089777	    -17.85853617	      2.05005761	      0.03578026	     25.01934582	     13.63100492	      0.00000000	      0.01272223	      0.56633886	      0.56976146	      0.02362645	      0.75323069	      0.60537155	      0.02090135	      1.37699631	      0.60537155	      0.01454024	      1.37699631	      0.49854127	      0.01181386	      1.15487821	      0.46293118	      0.00726948	      0.87725890	      0.42732109	      0.09087362	      6.40653847	      3.16884229	      0.00000000	      0.00000000	     27.82783118	      0.25961237	     10.65314994	     10.70427329	    -16.44798612	     27.97862488	     35.27401236	     85.88026949	     -8.27291135	     -4.32049092	     13.16976155	     -7.91213202	     17.81492950	     29.60449047	     86.18297794	    -11.97010862	      1.46906799
      7.43333333	     -1.04671873	     -9.25031883	     83.06041920	      0.20214395	      0.67216450	      0.61546046	      9.40681934	      1.89078773	      8.59007345	      0.81450218	      0.01421574	     14.81506217	    -14.58384560	      0.00000000	      7.62019448	     -0.98381762	    -17.85075444	      1.93588925	      0.03378764	     24.92093885	     13.73204982	      0.00000000	      0.01659663	      0.57368587	      0.54590935	      0.03082160	      0.76300221	      0.58002869	      0.02726660	      1.39485983	      0.58002869	      0.01896829	      1.39485983	      0.47767068	      0.01541163	      1.16986023	      0.44355135	      0.00948331	      0.88863942	      0.40943201	      0.11854805	      6.48964933	      3.03618404	      0.00000000	      0.00000000	     27.85106588	      0.16987810	     10.75015950	     10.41663051	    -16.62318267	     27.28576796	     35.92177391	     85.67390771	     -8.35256813	     -4.33963616	     13.11574015	     -7.93443077	     17.58754040	     29.79640178	     86.12510951	    -12.17432027	      0.92985957
      7.45000000	     -0.90418183	     -9.42218648	     83.47442577	      0.20176206	      0.67224535	      0.61488619	      9.51342252	      1.99877574	      8.44125405	      0.78526317	      0.01370543	     14.48965314	    -15.03005972	      0.00000000	      7.81746013	     -1.10148041	    -17.70045405	      1.91152529	      0.03336241	     24.91751438	     14.00509141	      0.00000000	      0.03887617	      0.59207688	      0.53326672	      0.07219694	      0.78746225	      0.56659589	      0.06386967	      1.43957573	      0.56659589	      0.04443158	      1.43957573	      0.46660838	      0.03610041	      1.20736318	      0.43327921	      0.02221385	      0.91712709	      0.39995004	      0.27768862	      6.69769212	      2.96586953	      0.00000000	      0.00000000	     27.90711450	     -0.26479365	     10.30785755	      9.52374043	    -16.56296276	     24.43762397	     37.14857159	     85.71024174	     -8.05085292	     -3.19818018	     13.17590069	     -7.68154782	     17.29755112	     29.51004136	     86.21265718	    -12.50315352	     -0.08113622
      7.46666667	     -0.91157081	     -9.45589853	     83.50982468	      0.20199204	      0.67252394	      0.61491552	      9.57021611	      2.00395634	      8.41745842	      0.81146689	      0.01416277	     14.26135446	    -15.00587892	      0.00000000	      7.86051604	     -1.09623793	    -17.77841612	      1.86225135	      0.03250242	     24.82327251	     13.96882374	      0.00000000	      0.02902344	      0.58872361	      0.51509699	      0.05389943	      0.78300240	      0.54729056	      0.04768261	      1.43142259	      0.54729056	      0.03317089	      1.43142259	      0.45070987	      0.02695116	      1.20052519	      0.41851631	      0.01658399	      0.91193287	      0.38632274	      0.20731151	      6.65975924	      2.86481495	      0.00000000	      0.00000000	     27.93417933	     -0.27019229	     10.16682521	      9.62056905	    -16.74966483	     24.17536373	     37.62067239	     85.73705039	     -8.08388248	     -3.24943249	     13.15074185	     -7.85985068	     17.25662835	     29.57558328	     86.20035900	    -12.52164195	     -0.14748336
      7.48333333	     -0.77117935	     -9.64531637	     83.85075566	      0.20181402	      0.67241580	      0.61422750	      9.69193968	      2.13478213	      8.26827647	      0.78836426	      0.01375955	     13.74689436	    -15.55058578	      0.00000000	      8.01787363	     -1.21362138	    -17.62162690	      1.80303837	      0.03146896	     24.61704999	     14.00488666	      0.00000000	      0.06801697	      0.59788392	      0.61386663	      0.12631431	      0.79518562	      0.65223329	      0.11174508	      1.45369497	      0.65223329	      0.07773659	      1.45369497	      0.53713330	      0.06316056	      1.21920489	      0.49876663	      0.03886490	      0.92612220	      0.46039997	      0.48583841	      6.76338251	      3.41414202	      0.00000000	      0.00000000	     28.02785442	     -1.14814011	      8.19640306	      7.90074631	    -16.68493107	     19.42436854	     39.82646267	     87.10726941	     -7.44445409	     -1.23703221	     13.38351585	     -7.62515906	     17.95535112	     29.22565205	     86.06336150	    -12.59672341	     -0.49926323
      7.50000000	     -0.65056107	     -9.68317159	     84.12305611	      0.20177165	      0.67260149	      0.61446894	      9.73667288	      2.23648862	      8.03767786	      0.81507978	      0.01422583	     13.54793962	    -15.56981359	      0.00000000	      8.08614074	     -1.31415459	    -17.03922391	      1.83022758	      0.03194350	     24.31343681	     13.44815273	      0.00000000	      0.07409594	      0.60255692	      0.61305031	      0.13760357	      0.80140071	      0.65136595	      0.12173222	      1.46505690	      0.65136595	      0.08468425	      1.46505690	      0.53641902	      0.06880549	      1.22873408	      0.49810338	      0.04233842	      0.93336067	      0.45978773	      0.52925989	      6.81624442	      3.40960191	      0.00000000	      0.00000000	     28.06236258	     -1.40796040	      6.96732775	      7.60128595	    -16.87633953	     18.24258781	     40.73625017	     87.48376265	     -7.54355612	     -0.45179657	     13.65988210	     -7.65277822	     18.68156166	     28.78098648	     85.74318636	    -12.88314179	     -0.54602308
      7.51666667	     -0.55523897	     -9.67121150	     84.29130627	      0.20189927	      0.67286480	      0.61507864	      9.76536329	      2.33276254	      7.88116782	      0.85082978	      0.01484978	     13.35468620	    -15.70299567	      0.00000000	      8.10094151	     -1.40466537	    -16.52980702	      1.85364043	      0.03235213	     23.98522059	     12.92205267	      0.00000000	      0.07244554	      0.60385177	      0.58448568	      0.13453861	      0.80312286	      0.62101604	      0.11902078	      1.46820520	      0.62101604	      0.08279801	      1.46820520	      0.51142497	      0.06727293	      1.23137453	      0.47489462	      0.04139538	      0.93536639	      0.43836426	      0.51747125	      6.83089200	      3.25073402	      0.00000000	      0.00000000	     28.07133792	     -1.37390933	      5.82448134	      7.87467632	    -17.17445486	     18.54163287	     41.00799497	     87.56628694	     -8.04288244	     -0.27843568	     14.01415471	     -7.74778441	     19.28465362	     28.12413278	     85.56946055	    -13.21413306	     -0.90005921
      7.53333333	     -0.49383741	     -9.63289445	     84.43078171	      0.20211354	      0.67320310	      0.61598684	      9.79665586	      2.40087853	      7.72509189	      0.90807672	      0.01584893	     13.37818718	    -15.65997006	      0.00000000	      8.13728926	     -1.48333933	    -16.28640292	      1.97559608	      0.03448066	     23.67209661	     12.66781795	      0.00000000	      0.06611395	      0.60401936	      0.50494176	      0.12278022	      0.80334575	      0.53650062	      0.10861861	      1.46861267	      0.53650062	      0.07556164	      1.46861267	      0.44182404	      0.06139342	      1.23171627	      0.41026518	      0.03777751	      0.93562598	      0.37870632	      0.47224535	      6.83278777	      2.80833461	      0.00000000	      0.00000000	     28.07840774	     -1.24764969	      5.13981847	      8.69061984	    -17.46403557	     19.88854330	     40.67164734	     87.60140651	     -8.36513609	     -0.21070105	     14.48408264	     -8.00764276	     20.40553502	     27.35323129	     85.08905655	    -14.19933737	     -1.42013705
      7.55000000	     -0.46841194	     -9.64811797	     84.56825514	      0.20230789	      0.67347817	      0.61681567	      9.87864482	      2.43631181	      7.45981453	      0.97346218	      0.01699012	     13.40577855	    -15.52944083	      0.00000000	      8.22009314	     -1.51785083	    -15.90495251	      2.07266230	      0.03617478	     23.40606171	     12.34284927	      0.00000000	      0.06754619	      0.60261615	      0.37581881	      0.12544003	      0.80147948	      0.39930749	      0.11097164	      1.46520092	      0.39930749	      0.07719854	      1.46520092	      0.32884146	      0.06272339	      1.22885486	      0.30535279	      0.03859589	      0.93345242	      0.28186411	      0.48247569	      6.81691445	      2.09019150	      0.00000000	      0.00000000	     28.08008068	     -0.91751939	      4.80920005	      9.95667780	    -17.78937102	     22.51922614	     39.79582384	     87.55133200	     -8.98391464	     -0.64160622	     14.93050942	     -8.44629155	     21.70403396	     26.63263397	     84.70841155	    -15.46229851	     -2.19062828
      7.56666667	     -0.44717549	     -9.84329697	     84.46776943	      0.20294613	      0.67355791	      0.61762930	     10.16308954	      2.52415300	      7.56466087	      1.09002294	      0.01902449	     13.29467875	    -15.37953594	      0.00000000	      8.44914623	     -1.61138391	    -15.97652116	      2.12184327	      0.03703315	     23.09100207	     12.35575896	      0.00000000	      0.09106162	      0.60259415	      0.30173548	      0.16911054	      0.80145022	      0.32059394	      0.14960514	      1.46514742	      0.32059394	      0.10407433	      1.46514742	      0.26401854	      0.08455982	      1.22881000	      0.24516007	      0.05203261	      0.93341834	      0.22630161	      0.65044407	      6.81666557	      1.67816219	      0.00000000	      0.00000000	     28.10684556	     -0.70638349	      4.50338835	     10.82856010	    -17.66191766	     23.42607211	     39.06448300	     87.79453418	     -8.85306991	     -0.50464116	     15.34975299	     -8.76529973	     21.98912619	     26.07433730	     85.06795240	    -15.80597088	     -2.46534189
